<svg viewBox="0 0 400 400" xmlns="http://www.w3.org/2000/svg">
  <!-- Main circular background -->
  <circle cx="200" cy="200" r="160" fill="#f5f9f7" stroke="#1d8a4b" stroke-width="6" />
  
  <!-- Outer ring/orbit -->
  <circle cx="200" cy="200" r="145" fill="none" stroke="#238f53" stroke-width="3" stroke-opacity="0.4" stroke-dasharray="6,3" />
  
  <!-- Mountain element -->
  <path d="M85,285 L160,160 L200,220 L260,130 L320,285" fill="#238f53" />
  
  <!-- Lake/water element -->
  <path d="M85,285 L320,285 L320,310 Q260,325 200,315 Q140,325 80,310 L85,285" fill="#1a90d9" />
  
  <!-- Sun/circular element -->
  <circle cx="200" cy="120" r="40" fill="#f9c846" />
  
  <!-- Bird silhouettes -->
  <path d="M180,110 Q190,100 200,110 L190,112 L195,120 L180,115 Z" fill="#333" />
  <path d="M210,130 Q220,120 230,130 L220,132 L225,140 L210,135 Z" fill="#333" />
  
  <!-- Tree element left -->
  <path d="M140,260 Q140,220 120,210 Q145,210 155,185 Q165,210 190,210 Q170,220 170,260" fill="#2cb86d" />
  <rect x="150" y="260" width="10" height="25" fill="#8b5a2b" />
  
  <!-- Tree element right -->
  <path d="M230,260 Q230,230 215,225 Q235,225 245,205 Q255,225 270,225 Q250,230 250,260" fill="#2cb86d" />
  <rect x="240" y="260" width="5" height="15" fill="#8b5a2b" />
  
  <!-- Fish in water -->
  <path d="M130,300 Q140,295 150,300 L155,297 L155,303 L150,300 L145,303 Z" fill="#f5f9f7" />
  
  <!-- Ripples in water -->
  <path d="M160,300 Q170,295 180,300" fill="none" stroke="#f5f9f7" stroke-width="1.5" />
  <path d="M185,298 Q195,293 205,298" fill="none" stroke="#f5f9f7" stroke-width="1.5" />
  
  <!-- Trail/path element -->
  <path d="M140,260 Q170,240 200,250 Q230,260 250,260" fill="none" stroke="#8b5a2b" stroke-width="3" stroke-linecap="round" stroke-opacity="0.7" />
</svg>
